<svg width="14" height="14" viewBox="0 0 14 14" fill="none" xmlns="http://www.w3.org/2000/svg">
<path fill-rule="evenodd" clip-rule="evenodd" d="M7.89576 1.08632C7.89576 0.624434 7.52132 0.25 7.05944 0.25C6.59755 0.25 6.22312 0.624433 6.22312 1.08632L6.22311 6.10424L1.08632 6.10424C0.624434 6.10424 0.25 6.47868 0.25 6.94056C0.25 7.40245 0.624434 7.77688 1.08632 7.77689H6.22311L6.22311 12.9137C6.22311 13.3756 6.59755 13.75 7.05943 13.75C7.52132 13.75 7.89576 13.3756 7.89575 12.9137L7.89576 7.77689H12.9137C13.3756 7.77689 13.75 7.40245 13.75 6.94057C13.75 6.47868 13.3756 6.10425 12.9137 6.10425L7.89576 6.10424L7.89576 1.08632Z" fill="black"/>
</svg>
